<?xml version="1.0" encoding="UTF-8"?>
<svg id="Layer_1" xmlns="http://www.w3.org/2000/svg" version="1.1" viewBox="0 0 1138.94 129.47">
  <!-- Generator: Adobe Illustrator 29.5.0, SVG Export Plug-In . SVG Version: 2.1.0 Build 137)  -->
  <defs>
    <style>
      .st0 {
        fill: #fff;
      }

      .st1 {
        display: none;
        fill: #282560;
      }
    </style>
  </defs>
  <rect class="st1" width="1138.94" height="129.47"/>
  <g>
    <g>
      <path class="st0" d="M36.95,23.45l20.61,53.74,21.54-57.65,20.61,57.65,21.89-53.74h12.97l-35.38,85.51-20.36-56.97-21.23,57.02L23.98,23.45h12.97Z"/>
      <path class="st0" d="M150.07,23.45v80.4h-11.95V23.45h11.95Z"/>
      <path class="st0" d="M168.44,23.45v69h23.28v11.4h-35.23V23.45h11.95Z"/>
      <path class="st0" d="M208.7,23.45v69h23.28v11.4h-35.23V23.45h11.95Z"/>
      <path class="st0" d="M334.22,27.78v14.37c-6.91-5.87-14.05-8.8-21.43-8.8-8.14,0-14.99,2.97-20.56,8.9-5.61,5.9-8.41,13.12-8.41,21.66s2.8,15.55,8.41,21.35c5.61,5.8,12.48,8.7,20.61,8.7,4.2,0,7.78-.69,10.72-2.08,1.64-.69,3.34-1.63,5.1-2.81,1.76-1.18,3.62-2.6,5.56-4.27v14.63c-6.84,3.92-14.02,5.88-21.54,5.88-11.31,0-20.97-4.01-28.97-12.03-7.97-8.09-11.95-17.84-11.95-29.27,0-10.24,3.33-19.37,10-27.39,8.2-9.82,18.82-14.74,31.84-14.74,7.11,0,13.98,1.96,20.61,5.88Z"/>
      <path class="st0" d="M367.71,69.59l24.51,34.26h-14.61l-22.61-32.91h-2.15v32.91h-11.95V23.45h14c10.46,0,18.01,2,22.66,5.99,5.13,4.44,7.69,10.31,7.69,17.6,0,5.69-1.61,10.59-4.82,14.69-3.21,4.1-7.45,6.72-12.72,7.86ZM352.84,60.38h3.8c11.31,0,16.97-4.39,16.97-13.17,0-8.23-5.5-12.34-16.51-12.34h-4.26v25.52Z"/>
      <path class="st0" d="M448.96,85.64h-31.61l-8.23,18.21h-12l36.54-79.7,35.25,79.7h-12.2l-7.75-18.21ZM444.41,75.01l-10.95-25.5-11.48,25.5h22.43Z"/>
      <path class="st0" d="M514.38,34.86h-27.59v19.32h26.61v11.4h-26.61v38.28h-11.95V23.45h39.53v11.4Z"/>
      <path class="st0" d="M550.07,34.86v69h-11.95V34.86h-18.2v-11.4h48.3v11.4h-18.15Z"/>
    </g>
    <g>
      <g>
        <path class="st0" d="M660.99,35.43l-9.69,5.83c-1.81-3.19-3.54-5.28-5.18-6.25-1.71-1.11-3.91-1.67-6.61-1.67-3.32,0-6.07.95-8.26,2.86-2.19,1.87-3.28,4.24-3.28,7.08,0,3.92,2.87,7.08,8.61,9.48l7.9,3.28c6.43,2.64,11.13,5.86,14.1,9.66s4.46,8.46,4.46,13.98c0,7.39-2.43,13.5-7.28,18.33-4.89,4.86-10.96,7.29-18.2,7.29-6.87,0-12.55-2.06-17.02-6.2-4.41-4.13-7.16-9.95-8.26-17.45l12.1-2.71c.55,4.72,1.5,7.99,2.87,9.79,2.46,3.47,6.05,5.21,10.77,5.21,3.73,0,6.82-1.27,9.28-3.8,2.46-2.53,3.69-5.75,3.69-9.63,0-1.56-.21-2.99-.64-4.3-.43-1.3-1.09-2.5-2-3.59-.91-1.09-2.08-2.12-3.51-3.07-1.44-.95-3.15-1.87-5.13-2.73l-7.64-3.23c-10.84-4.65-16.25-11.46-16.25-20.41,0-6.04,2.27-11.09,6.82-15.15,4.55-4.1,10.2-6.14,16.97-6.14,9.13,0,16.25,4.51,21.38,13.54Z"/>
        <path class="st0" d="M667.2,63.29c0-11.32,4.08-21.04,12.26-29.16,8.14-8.12,17.91-12.19,29.33-12.19s20.95,4.1,29.02,12.29c8.1,8.19,12.15,18.04,12.15,29.53s-4.07,21.37-12.2,29.42c-8.17,8.09-18.03,12.13-29.59,12.13-10.22,0-19.4-3.59-27.54-10.78-8.96-7.95-13.43-18.36-13.43-31.25ZM679.25,63.45c0,8.89,2.94,16.2,8.82,21.92,5.85,5.73,12.6,8.59,20.25,8.59,8.31,0,15.31-2.92,21.02-8.75,5.71-5.9,8.56-13.09,8.56-21.56s-2.82-15.76-8.46-21.56c-5.61-5.83-12.55-8.75-20.82-8.75s-15.2,2.92-20.87,8.75c-5.67,5.76-8.51,12.88-8.51,21.35Z"/>
        <path class="st0" d="M796.12,34.86h-27.59v19.32h26.61v11.4h-26.61v38.28h-11.95V23.45h39.53v11.4Z"/>
        <path class="st0" d="M831.81,34.86v69h-11.95V34.86h-18.2v-11.4h48.3v11.4h-18.15Z"/>
        <path class="st0" d="M867.15,23.45l20.61,53.74,21.54-57.65,20.61,57.65,21.9-53.74h12.97l-35.38,85.51-20.36-56.97-21.23,57.02-33.64-85.56h12.97Z"/>
        <path class="st0" d="M991.74,85.64h-31.61l-8.23,18.21h-12l36.54-79.7,35.25,79.7h-12.2l-7.75-18.21ZM987.2,75.01l-10.95-25.5-11.48,25.5h22.43Z"/>
        <path class="st0" d="M1044.45,69.59l24.51,34.27h-14.61l-22.61-32.91h-2.15v32.91h-11.95V23.45h14c10.46,0,18.01,2,22.66,5.99,5.13,4.44,7.69,10.31,7.69,17.6,0,5.69-1.61,10.59-4.82,14.69-3.21,4.1-7.45,6.72-12.72,7.86ZM1029.58,60.37h3.79c11.31,0,16.97-4.39,16.97-13.17,0-8.23-5.5-12.34-16.51-12.34h-4.26v25.52Z"/>
        <path class="st0" d="M1118.24,34.86h-31.74v19.32h30.82v11.4h-30.82v26.87h31.74v11.4h-43.69V23.45h43.69v11.4Z"/>
      </g>
      <circle class="st0" cx="709.28" cy="63.04" r="9.08"/>
    </g>
  </g>
</svg>