<svg width="691" height="691" viewBox="0 0 691 691" fill="none" xmlns="http://www.w3.org/2000/svg">
<path d="M161.117 493.703L23 168.259H92.0587L184.685 390.153C193.637 370.064 212.309 328.132 215.378 321.119C218.447 314.106 217.753 310.161 217.022 309.066C205.147 282.95 179.423 224.472 171.531 199.488C163.639 174.505 178.839 154.014 187.426 146.891L340.341 28L492.161 145.796L443.381 183.6C412.506 158.945 349.768 108.978 345.822 106.348C341.876 103.718 337.966 105.252 336.505 106.348C303.62 132.098 237.192 184.367 234.561 187.435C231.93 190.503 233.465 195.653 234.561 197.845C263.427 261.947 323.241 394.974 331.572 414.26C339.903 433.545 343.447 436.175 344.178 435.079H369.938L391.313 392.892H452.699L434.612 435.079C447.035 435.627 473.745 436.394 481.199 435.079C488.653 433.764 494.536 426.496 496.546 423.026C499.469 417.547 506.192 404.507 509.7 396.179C513.207 387.852 508.238 382.482 505.315 380.839C485.949 369.516 442.285 344.678 434.612 337.556C426.939 330.433 424.198 319.475 428.035 309.613C431.871 299.752 464.208 225.787 477.911 204.419C491.613 183.052 516.825 169.902 537.104 168.259H667L623.701 268.522H560.671L579.854 225.787C568.893 225.604 545.764 225.349 540.94 225.787C536.117 226.225 529.431 232.909 526.69 236.197L496.546 303.039C518.104 314.727 563.85 340.405 574.374 349.609C584.897 358.814 583.508 370.611 581.499 375.36C574.739 393.988 557.931 436.833 544.777 459.186C531.623 481.54 502.026 491.512 488.872 493.703H299.783L252.1 390.153L204.416 493.703H161.117Z" fill="white"/>
<path d="M248.263 520.002H169.887L341.437 663L511.892 520.002H432.42C403.736 543.196 345.932 589.912 344.178 591.227C342.424 592.542 339.428 591.775 338.149 591.227L248.263 520.002Z" fill="white"/>
</svg>
