<?xml version="1.0" encoding="UTF-8"?>
<svg id="Layer_1" xmlns="http://www.w3.org/2000/svg" version="1.1" viewBox="0 0 500 500">
  <!-- Generator: Adobe Illustrator 29.5.0, SVG Export Plug-In . SVG Version: 2.1.0 Build 137)  -->
  <defs>
    <style>
      .st0 {
        fill: #fff;
      }
    </style>
  </defs>
  <path class="st0" d="M445.81,133.1L253.09,21.83c-2.17-1.25-4.83-1.25-7,0L53.36,133.1c-2.17,1.25-3.5,3.56-3.5,6.06v222.54c0,2.5,1.33,4.81,3.5,6.06l146.46,84.56s0,0,.01,0l46.25,26.7c1.08.62,2.29.94,3.5.94s2.42-.31,3.5-.94l46.25-26.7s0,0,.01,0l146.46-84.56c2.17-1.25,3.5-3.56,3.5-6.06v-222.54c0-2.5-1.33-4.81-3.5-6.06ZM203.33,215.64l-24.54-14.17,70.8-40.88,70.8,40.88-24.54,14.17-42.75-24.68c-2.17-1.25-4.83-1.25-7,0l-42.75,24.68ZM341.39,201.47c0-.31-.02-.62-.06-.93-.28-2.13-1.54-4.04-3.44-5.13l-84.8-48.96c-2.17-1.25-4.83-1.25-7,0l-84.8,48.96c-2.17,1.25-3.5,3.56-3.5,6.06v121.4l-16.84-9.72v-125.44l108.64-62.72,108.63,62.72v125.44l-16.84,9.72v-121.4ZM130.45,177.61c-2.17,1.25-3.5,3.56-3.5,6.06v129.48l-20.51,11.84-4.03,2.33v-161.87l140.18-80.93v28.34l-112.14,64.74ZM109.41,339.45l24.55-14.17,23.84,13.76v28.34l-48.38-27.93ZM341.39,339.04l23.84-13.76,24.55,14.17-48.38,27.93v-28.34ZM372.22,313.15v-129.48c0-2.5-1.33-4.81-3.5-6.06l-112.13-64.74v-28.34l140.18,80.93v161.87l-24.55-14.17ZM249.59,35.97l178.73,103.19-24.54,14.17-150.68-87c-.27-.16-.55-.29-.83-.41-1.71-.7-3.63-.7-5.33,0-.28.12-.56.25-.83.41l-150.68,87-24.54-14.17L249.59,35.97ZM63.86,151.28l24.54,14.17v173.99c0,2.5,1.33,4.81,3.5,6.06l69.38,40.06c1.08.62,2.29.94,3.5.94s2.42-.31,3.5-.94c2.17-1.25,3.5-3.56,3.5-6.06v-165.91l24.54,14.17v206.37l-132.47-76.48v-206.38ZM210.33,227.77l32.25-18.62v251.7l-32.25-18.62v-214.46ZM256.59,209.14l32.25,18.62v214.46l-32.25,18.62v-251.7ZM435.31,357.66l-132.47,76.48v-206.37l24.54-14.17v165.91c0,2.5,1.33,4.81,3.5,6.06,2.17,1.25,4.83,1.25,7,0l69.38-40.06c2.17-1.25,3.5-3.56,3.5-6.06v-173.99l24.54-14.17v206.38Z"/>
</svg>