<svg width="658" height="73" viewBox="0 0 658 73" fill="none" xmlns="http://www.w3.org/2000/svg">
<path d="M630.125 72.3227C629.223 72.3227 628.772 71.8706 628.772 70.9663V14.432H619.303C618.402 14.432 617.951 13.9799 617.951 13.0756V1.35639C617.951 0.45213 618.402 0 619.303 0H656.259C657.161 0 657.612 0.45213 657.612 1.35639V13.0756C657.612 13.9799 657.161 14.432 656.259 14.432H646.79V70.9663C646.79 71.8706 646.339 72.3227 645.437 72.3227H630.125Z" fill="white"/>
<path d="M569.562 72.3227C568.662 72.3227 568.213 71.8706 568.213 70.9663V1.35639C568.213 0.45213 568.662 0 569.562 0H606.524C607.424 0 607.873 0.45213 607.873 1.35639V13.0756C607.873 13.9799 607.424 14.432 606.524 14.432H586.181V32.5533H603.826C604.726 32.5533 605.175 33.0055 605.175 33.9097V45.6289C605.175 46.5332 604.726 46.9853 603.826 46.9853H586.181V70.9663C586.181 71.8706 585.732 72.3227 584.832 72.3227H569.562Z" fill="white"/>
<path d="M426.032 72.3227C425.161 72.3227 424.403 72.0876 423.76 71.6174L414.499 63.5333L405.124 51.8683C404.707 51.3619 404.442 51.0545 404.329 50.946C404.215 50.8013 404.158 50.4758 404.158 49.9694V22.299C404.158 21.7927 404.215 21.4671 404.329 21.3224C404.48 21.1778 404.745 20.8703 405.124 20.4001L413.817 9.65749L423.76 0.705323C424.176 0.379787 424.498 0.180849 424.725 0.108509C424.991 0.0361692 425.426 0 426.032 0H440.066C441.012 0 441.486 0.45213 441.486 1.35639V10.0373C441.486 10.3266 441.448 10.6341 441.372 10.9596C441.334 11.249 441.145 11.5022 440.804 11.7192L430.123 18.7182L423.135 27.2906V45.0321L430.236 53.6045L440.804 60.5492C441.107 60.7301 441.297 60.9471 441.372 61.2003C441.448 61.4535 441.486 61.7248 441.486 62.0141V70.9663C441.486 71.8706 441.012 72.3227 440.066 72.3227H426.032Z" fill="white"/>
<path d="M342.796 72.3227C341.84 72.3227 341.362 71.8706 341.362 70.9663V1.35639C341.362 0.45213 341.84 0 342.796 0H359.031C359.987 0 360.466 0.45213 360.466 1.35639V57.8364H374.922C375.879 57.8364 376.357 58.2886 376.357 59.1928V70.9663C376.357 71.8706 375.879 72.3227 374.922 72.3227H342.796Z" fill="white"/>
<path d="M297.076 72.3227C296.12 72.3227 295.642 71.8706 295.642 70.9663V1.35639C295.642 0.45213 296.12 0 297.076 0H313.311C314.267 0 314.745 0.45213 314.745 1.35639V57.8364H329.202C330.158 57.8364 330.636 58.2886 330.636 59.1928V70.9663C330.636 71.8706 330.158 72.3227 329.202 72.3227H297.076Z" fill="white"/>
<path d="M266.714 72.3227C265.78 72.3227 265.313 71.8706 265.313 70.9663V1.35639C265.313 0.45213 265.78 0 266.714 0H282.576C283.51 0 283.977 0.45213 283.977 1.35639V70.9663C283.977 71.8706 283.51 72.3227 282.576 72.3227H266.714Z" fill="white"/>
<path d="M98.6649 72.3227C97.78 72.3227 97.3375 71.8706 97.3375 70.9663V1.35639C97.3375 0.45213 97.78 0 98.6649 0H135.671C136.556 0 136.998 0.45213 136.998 1.35639V13.0756C136.998 13.9799 136.556 14.432 135.671 14.432H115.018V29.8406H133.866C134.751 29.8406 135.193 30.2927 135.193 31.197V41.1257C135.193 42.03 134.751 42.4821 133.866 42.4821H115.018V57.8364H135.671C136.556 57.8364 136.998 58.2886 136.998 59.1928V70.9663C136.998 71.8706 136.556 72.3227 135.671 72.3227H98.6649Z" fill="white"/>
<path d="M13.8532 72.3227C12.9907 72.3227 12.272 72.0152 11.6971 71.4003L0.91636 60.5492C0.305454 59.9705 0 59.2471 0 58.379V1.35639C0 0.45213 0.449196 0 1.34759 0H16.6023C17.5007 0 17.9499 0.45213 17.9499 1.35639L18.1438 49.8666L18.1438 51.2233H19.5335H33.2128L33.0189 1.35639C33.0189 0.45213 33.4681 0 34.3665 0H49.6212C50.5196 0 50.9687 0.45213 50.9687 1.35639V51.2233H65.9839V1.35639C65.9839 0.45213 66.4331 0 67.3315 0H82.64C83.5384 0 83.9876 0.45213 83.9876 1.35639V58.379C83.9876 59.2471 83.6822 59.9705 83.0713 60.5492L72.2906 71.4003C71.6797 72.0152 70.961 72.3227 70.1344 72.3227H54.4725C53.646 72.3227 52.9272 72.0152 52.3163 71.4003L43.2605 62.2854H40.7271L31.6713 71.4003C31.0604 72.0152 30.3417 72.3227 29.5152 72.3227H13.8532Z" fill="white"/>
<path d="M183.513 72.3227C182.651 72.3227 181.932 72.0152 181.357 71.4003L170.577 60.5492C169.966 59.9705 169.66 59.2471 169.66 58.379V1.35639C169.66 0.45213 170.109 0 171.008 0H186.262C187.161 0 187.61 0.45213 187.61 1.35639L187.804 51.2233H202.873L202.679 1.35639C202.679 0.45213 203.128 0 204.027 0H219.281C220.18 0 220.629 0.45213 220.629 1.35639V51.2233H235.644V1.35639C235.644 0.45213 236.093 0 236.992 0H252.3C253.199 0 253.648 0.45213 253.648 1.35639V58.379C253.648 59.2471 253.342 59.9705 252.731 60.5492L241.951 71.4003C241.34 72.0152 240.621 72.3227 239.795 72.3227H224.133C223.306 72.3227 222.587 72.0152 221.977 71.4003L212.921 62.2854H210.387L201.332 71.4003C200.721 72.0152 200.002 72.3227 199.175 72.3227H183.513Z" fill="white"/>
<path fill-rule="evenodd" clip-rule="evenodd" d="M482.957 0.0181274C483.824 0.0181274 484.548 0.253028 485.127 0.723126L497.602 13.0902C498 13.4518 498.235 13.7592 498.307 14.0123C498.416 14.2654 498.47 14.6813 498.47 15.2597V30.1224C498.47 30.5924 498.289 31.0081 497.927 31.3697L491.961 37.174L486.917 41.5129L492.883 49.4321L499.013 62.5587C499.158 62.8841 499.266 63.2098 499.338 63.5353C499.447 63.8245 499.501 64.1862 499.501 64.62V70.9666C499.501 71.8706 499.049 72.3229 498.145 72.3229H483.825C483.029 72.3229 482.487 71.9606 482.198 71.2374L473.465 45.8526H469.397V70.9666C469.397 71.8706 468.944 72.3229 468.04 72.3229H453.557C452.654 72.3228 452.202 71.8705 452.202 70.9666V1.37365C452.202 0.469988 452.654 0.0182578 453.557 0.0181274H482.957ZM475.329 15.0674C471.168 15.0675 467.795 18.4399 467.795 22.6005C467.795 26.7612 471.168 30.1344 475.329 30.1344C479.49 30.1344 482.863 26.7612 482.863 22.6005C482.863 18.4399 479.49 15.0674 475.329 15.0674Z" fill="white"/>
<path fill-rule="evenodd" clip-rule="evenodd" d="M542.214 0.0181274C543.009 0.0181734 543.588 0.289135 543.949 0.831279L556.859 19.0571C557.22 19.5634 557.402 20.1056 557.402 20.6842V70.9666C557.402 71.8706 556.949 72.3229 556.046 72.3229H540.695C539.791 72.3229 539.339 71.8706 539.339 70.9666V47.914H527.243V70.9666C527.243 71.8706 526.791 72.3229 525.887 72.3229H510.482C509.578 72.3228 509.126 71.8705 509.126 70.9666V20.6842C509.126 20.2141 509.307 19.6718 509.669 19.0571L522.524 0.831279C522.921 0.288939 523.5 0.0181274 524.26 0.0181274H542.214ZM533.067 15.0674C528.906 15.0676 525.534 18.44 525.534 22.6005C525.534 26.7611 528.906 30.1342 533.067 30.1344C537.227 30.1344 540.6 26.7612 540.6 22.6005C540.6 18.4399 537.227 15.0674 533.067 15.0674Z" fill="white"/>
</svg>
